<svg xmlns="http://www.w3.org/2000/svg" viewBox="0 0 512 512">
  <defs>
    <linearGradient id="bg" x1="0%" y1="0%" x2="100%" y2="100%">
      <stop offset="0%" stop-color="#6366f1"/>
      <stop offset="100%" stop-color="#8b5cf6"/>
    </linearGradient>
  </defs>
  <rect width="512" height="512" rx="96" fill="url(#bg)"/>
  <!-- Barcode lines -->
  <rect x="120" y="140" width="18" height="232" rx="4" fill="white" opacity="0.95"/>
  <rect x="150" y="140" width="10" height="232" rx="3" fill="white" opacity="0.95"/>
  <rect x="172" y="140" width="22" height="232" rx="4" fill="white" opacity="0.95"/>
  <rect x="206" y="140" width="12" height="232" rx="3" fill="white" opacity="0.95"/>
  <rect x="230" y="140" width="18" height="232" rx="4" fill="white" opacity="0.95"/>
  <rect x="260" y="140" width="8" height="232" rx="2" fill="white" opacity="0.95"/>
  <rect x="280" y="140" width="24" height="232" rx="4" fill="white" opacity="0.95"/>
  <rect x="316" y="140" width="14" height="232" rx="3" fill="white" opacity="0.95"/>
  <rect x="342" y="140" width="10" height="232" rx="3" fill="white" opacity="0.95"/>
  <rect x="364" y="140" width="20" height="232" rx="4" fill="white" opacity="0.95"/>
  <!-- Scan line -->
  <rect x="100" y="390" width="312" height="6" rx="3" fill="white" opacity="0.6"/>
  <!-- Glow dot -->
  <circle cx="100" cy="393" r="10" fill="#34d399"/>
  <circle cx="100" cy="393" r="20" fill="#34d399" opacity="0.25"/>
</svg>
